<svg xmlns="http://www.w3.org/2000/svg" xmlns:xlink="http://www.w3.org/1999/xlink" width="1013.262" height="645.675" viewBox="0 0 1013.262 645.675">
  <defs>
    <filter id="Rectangle_14" x="0" y="30.675" width="980.623" height="615" filterUnits="userSpaceOnUse">
      <feOffset dy="3" input="SourceAlpha"/>
      <feGaussianBlur stdDeviation="3" result="blur"/>
      <feFlood flood-opacity="0.161"/>
      <feComposite operator="in" in2="blur"/>
      <feComposite in="SourceGraphic"/>
    </filter>
  </defs>
  <g id="Group_86" data-name="Group 86" transform="translate(-116.409 -212.308)">
    <g id="Group_68" data-name="Group 68" transform="translate(-53.684 30.179)">
      <g id="Group_63" data-name="Group 63">
        <g transform="matrix(1, 0, 0, 1, 170.09, 182.13)" filter="url(#Rectangle_14)">
          <rect id="Rectangle_14-2" data-name="Rectangle 14" width="962.623" height="597" rx="28" transform="translate(9 36.67)" fill="#e2f2e4"/>
        </g>
        <g id="Group_62" data-name="Group 62" transform="translate(1034.74 182.13)">
          <path id="bxs-certification" d="M3.271,97.178a7.381,7.381,0,0,0,3.467,4.514l14.206,8.214v16.359a7.44,7.44,0,0,0,7.44,7.44H44.743l8.214,14.211a7.455,7.455,0,0,0,10.163,2.723l14.2-8.2,14.211,8.214a7.455,7.455,0,0,0,10.163-2.723l8.209-14.206h16.359a7.44,7.44,0,0,0,7.44-7.44V109.926l14.206-8.214a7.43,7.43,0,0,0,2.723-10.163l-8.209-14.211,8.214-14.206a7.44,7.44,0,0,0-2.723-10.163l-14.206-8.214V28.4a7.44,7.44,0,0,0-7.44-7.44H109.91L101.7,6.749a7.47,7.47,0,0,0-4.514-3.467,7.4,7.4,0,0,0-5.65.744L77.322,12.235,63.116,4.021A7.425,7.425,0,0,0,52.952,6.734L44.738,20.945H28.38a7.44,7.44,0,0,0-7.44,7.44V44.749L6.733,52.968A7.445,7.445,0,0,0,4.02,63.132l8.209,14.206L4.015,91.544a7.46,7.46,0,0,0-.744,5.64Z" transform="translate(-3.02 -3.016)" fill="#48b5d6"/>
          <g id="Group_61" data-name="Group 61" transform="translate(41.218 47.975)">
            <g id="Group_1" data-name="Group 1" transform="translate(0)">
              <path id="Icon_material-verified-user" data-name="Icon material-verified-user" d="M-198.216,73.7l-22.177-22.177,7.818-7.817,14.359,14.3,36.537-36.537,7.817,7.873Z" transform="translate(220.393 -21.474)" fill="#e2f2e4"/>
            </g>
          </g>
        </g>
      </g>
      <g id="Group_66" data-name="Group 66" transform="translate(306.79 272.982)">
        <g id="Group_2" data-name="Group 2">
          <g id="Group_9" data-name="Group 9" transform="translate(0)">
            <g id="Group_7" data-name="Group 7" transform="translate(18.447 19.792)">
              <g id="Group_1-2" data-name="Group 1" transform="translate(0)">
                <path id="Icon_material-verified-user-2" data-name="Icon material-verified-user" d="M-214.3,35.824l-6.093-6.093,2.148-2.148,3.945,3.93,10.038-10.038,2.148,2.163Z" transform="translate(220.393 -21.474)" fill="#292d4f"/>
              </g>
            </g>
            <path id="certificatealt" d="M48.286,27.551l6.888,7.39-9.686,3.014,2.3,9.829L38.672,45.7,45.99,69.021a4.28,4.28,0,0,1-2.008,3.731l-3.731-3.731L35.8,73.47a4.5,4.5,0,0,1-2.584-1.614,4.4,4.4,0,0,1-1-2.835l-4.663-14.78-4.592,14.78a4.424,4.424,0,0,1-1,2.835,4.478,4.478,0,0,1-2.584,1.614l-4.449-4.449-3.731,3.731a4.28,4.28,0,0,1-2.008-3.731L16.5,45.7,7.39,47.784l2.3-9.829L0,34.941l6.888-7.39L0,20.161,9.686,17.22,7.39,7.392l9.829,2.3L20.161,0l7.39,6.888L34.941,0l3.014,9.686,9.829-2.3-2.3,9.829,9.686,2.941Zm-20.7-13.776a13.3,13.3,0,0,0-9.757,4.053,13.3,13.3,0,0,0-4.053,9.757,13.3,13.3,0,0,0,4.053,9.757A13.3,13.3,0,0,0,27.588,41.4a13.3,13.3,0,0,0,9.757-4.053A13.3,13.3,0,0,0,41.4,27.586a13.3,13.3,0,0,0-4.053-9.757A13.3,13.3,0,0,0,27.588,13.776Z" fill="#48b5d6"/>
          </g>
        </g>
      </g>
    </g>
    <g id="Group_73" data-name="Group 73" transform="translate(125.409 248.626)">
      <path id="Rectangle_15" data-name="Rectangle 15" d="M27,0H820a0,0,0,0,1,0,0V9.5A17.5,17.5,0,0,1,802.5,27H0a0,0,0,0,1,0,0v0A27,27,0,0,1,27,0Z" fill="#292d4f"/>
      <path id="Rectangle_16" data-name="Rectangle 16" d="M0,0H597a0,0,0,0,1,0,0V6.9A20.1,20.1,0,0,1,576.9,27H27A27,27,0,0,1,0,0V0A0,0,0,0,1,0,0Z" transform="translate(27) rotate(90)" fill="#292d4f"/>
      <path id="Rectangle_15-2" data-name="Rectangle 15" d="M27,0H725a0,0,0,0,1,0,0V27a0,0,0,0,1,0,0H0a0,0,0,0,1,0,0v0A27,27,0,0,1,27,0Z" transform="translate(963 597) rotate(180)" fill="#292d4f"/>
      <path id="Rectangle_16-2" data-name="Rectangle 16" d="M0,0H416a27,27,0,0,1,27,27v0a0,0,0,0,1,0,0H22A22,22,0,0,1,0,5V0A0,0,0,0,1,0,0Z" transform="translate(936 594) rotate(-90)" fill="#292d4f"/>
    </g>
    <g id="Group_72" data-name="Group 72" transform="translate(190.828 816.126)">
      <text id="GET_VERIFIED" data-name="GET VERIFIED" transform="translate(0 19)" fill="#292d4f" font-size="19" font-family="AvenirNext-Bold, Avenir Next" font-weight="700"><tspan x="0" y="0">GET VERIFIED</tspan></text>
      <g id="Group_8" data-name="Group 8" transform="translate(136.555 4)">
        <g id="Group_2-2" data-name="Group 2">
          <g id="Group_9-2" data-name="Group 9" transform="translate(0)">
            <g id="Group_7-2" data-name="Group 7" transform="translate(4.486 4.813)">
              <g id="Group_1-3" data-name="Group 1" transform="translate(0)">
                <path id="Icon_material-verified-user-3" data-name="Icon material-verified-user" d="M-218.911,24.964l-1.482-1.482.522-.522.959.956,2.441-2.441.522.526Z" transform="translate(220.393 -21.474)" fill="#292d4f"/>
              </g>
            </g>
            <path id="certificatealt-2" data-name="certificatealt" d="M11.742,6.7l1.675,1.8-2.355.733.558,2.39L9.4,11.114l1.78,5.671a1.041,1.041,0,0,1-.488.907l-.907-.907L8.707,17.867a1.094,1.094,0,0,1-.628-.393,1.071,1.071,0,0,1-.244-.689L6.7,13.191,5.583,16.785a1.076,1.076,0,0,1-.244.689,1.089,1.089,0,0,1-.628.393L3.629,16.785l-.907.907a1.041,1.041,0,0,1-.488-.907l1.78-5.671L1.8,11.62l.558-2.39L0,8.5,1.675,6.7,0,4.9l2.355-.715L1.8,1.8l2.39.558L4.9,0,6.7,1.675,8.5,0,9.23,2.355,11.62,1.8l-.558,2.39,2.355.715ZM6.709,3.35a3.235,3.235,0,0,0-2.373.986,3.235,3.235,0,0,0-.986,2.373,3.235,3.235,0,0,0,.986,2.373,3.235,3.235,0,0,0,2.373.986,3.235,3.235,0,0,0,2.373-.986,3.235,3.235,0,0,0,.986-2.373,3.235,3.235,0,0,0-.986-2.373A3.235,3.235,0,0,0,6.709,3.35Z" fill="#48b5d6"/>
          </g>
        </g>
      </g>
    </g>
  </g>
</svg>
