<svg xmlns="http://www.w3.org/2000/svg" width="56.654" height="66.652" viewBox="0 0 56.654 66.652">
  <g id="Iconly_Bold_Lock" data-name="Iconly/Bold/Lock" transform="translate(-3.5 -2)">
    <g id="Lock" transform="translate(3.5 2)">
      <path id="Path_24" data-name="Path 24" d="M28.276,0A18.2,18.2,0,0,1,46.732,17.983h0v5.11a13.9,13.9,0,0,1,9.922,13.194h0V52.739A14.072,14.072,0,0,1,42.431,66.652H14.226A14.073,14.073,0,0,1,0,52.739H0V36.287A13.908,13.908,0,0,1,9.922,23.093h0v-5.11A18.22,18.22,0,0,1,28.276,0Zm.034,37.939a2.916,2.916,0,0,0-2.946,2.881h0v7.352a2.963,2.963,0,0,0,5.926,0h0V40.821A2.924,2.924,0,0,0,28.31,37.939ZM28.344,5.8a12.354,12.354,0,0,0-12.5,12.121h0v4.458H40.806V17.983A12.337,12.337,0,0,0,28.344,5.8Z" fill="#0196c1"/>
    </g>
  </g>
</svg>
